<svg id="svg" xmlns="http://www.w3.org/2000/svg" xmlns:xlink="http://www.w3.org/1999/xlink" width="400" height="466.6666666666667" viewBox="0, 0, 400,466.6666666666667"><g id="svgg"><path id="path0" d="M198.187 29.399 C 197.906 29.924,197.508 32.451,197.303 35.016 C 196.945 39.486,196.697 40.850,194.694 49.333 C 192.635 58.053,192.892 57.219,189.859 65.018 C 188.592 68.274,186.168 73.211,184.183 76.574 C 182.278 79.803,179.928 83.801,178.961 85.458 L 177.203 88.472 179.681 93.680 C 184.100 102.965,188.129 113.843,189.266 119.556 C 194.467 145.686,195.778 160.454,195.778 192.908 C 195.778 192.918,197.501 193.035,199.607 193.167 L 203.436 193.406 203.683 178.148 C 204.285 141.153,210.010 113.641,221.586 92.115 C 223.952 87.717,223.975 87.344,222.047 84.818 C 212.808 72.719,206.427 57.838,202.018 38.115 C 199.685 27.678,199.425 27.086,198.187 29.399 M230.826 101.115 C 213.860 120.767,204.456 151.156,204.446 186.363 L 204.444 192.948 205.667 192.807 C 207.858 192.555,209.734 186.866,210.717 177.484 C 211.672 168.378,213.176 160.666,215.393 153.497 C 216.291 150.596,217.384 146.822,217.822 145.111 C 221.015 132.640,236.358 115.117,247.333 111.406 C 247.995 111.182,246.823 109.940,243.333 107.168 C 241.622 105.809,238.783 103.340,237.023 101.681 C 233.176 98.056,233.446 98.080,230.826 101.115 M159.924 106.940 L 153.847 112.494 159.924 118.581 C 163.478 122.140,167.147 126.327,168.763 128.667 C 170.282 130.867,171.798 133.052,172.131 133.524 C 172.689 134.314,173.018 133.921,176.331 128.494 L 179.925 122.607 178.592 119.920 C 175.681 114.053,167.225 101.280,166.305 101.360 C 166.137 101.374,163.266 103.886,159.924 106.940 M211.831 119.346 C 209.583 127.450,208.968 132.276,210.045 133.354 L 210.957 134.266 211.521 132.355 C 211.832 131.304,213.002 128.076,214.122 125.182 C 216.358 119.405,216.357 119.373,213.833 116.062 L 213.033 115.013 211.831 119.346 M184.643 118.144 C 183.896 119.287,178.921 127.464,173.587 136.314 L 163.890 152.406 169.344 167.203 C 172.344 175.341,175.352 183.500,176.029 185.333 C 176.705 187.167,179.548 194.522,182.347 201.679 C 188.090 216.366,187.986 216.284,187.995 206.111 L 188.000 200.889 185.778 200.889 L 183.556 200.889 183.556 197.333 L 183.556 193.778 185.556 193.778 C 187.913 193.778,187.822 194.261,186.837 186.914 C 186.226 182.365,185.830 180.951,184.213 177.556 C 182.259 173.451,175.744 157.656,175.082 155.416 C 174.751 154.297,175.461 152.961,181.801 142.755 C 189.793 129.889,189.358 131.316,187.811 123.044 C 186.436 115.687,186.342 115.542,184.643 118.144 M53.983 132.884 C 50.213 133.438,47.286 135.600,45.555 139.111 C 45.133 139.967,44.325 141.167,43.759 141.778 C 38.191 147.793,38.465 149.594,48.657 174.000 C 53.102 184.644,63.157 209.473,78.534 247.778 C 80.594 252.911,84.454 262.411,87.110 268.889 C 91.383 279.308,101.556 304.623,106.221 316.444 C 110.401 327.039,116.049 340.941,117.295 343.706 C 118.048 345.377,118.990 347.877,119.388 349.261 C 119.786 350.645,120.570 352.578,121.130 353.556 C 121.690 354.533,123.686 359.230,125.564 363.992 C 130.582 376.712,131.264 377.952,133.031 377.574 C 133.809 377.408,135.737 377.081,137.316 376.847 C 138.896 376.613,140.857 376.027,141.675 375.544 C 142.493 375.061,143.450 374.667,143.803 374.667 C 144.890 374.667,144.515 375.526,143.037 376.424 C 141.652 377.267,141.004 377.446,134.072 378.902 C 126.802 380.429,123.113 389.057,129.307 390.047 C 130.299 390.206,131.111 390.489,131.111 390.675 C 131.111 391.287,128.976 391.567,127.780 391.112 C 126.192 390.508,125.762 390.552,126.044 391.288 C 126.210 391.721,125.597 392.136,124.009 392.664 C 119.684 394.100,115.459 398.986,115.362 402.662 C 115.336 403.680,115.058 403.825,111.881 404.477 C 108.120 405.249,107.563 405.689,106.503 408.735 C 105.871 410.553,105.880 410.598,107.153 411.818 C 107.863 412.498,108.444 413.296,108.444 413.591 C 108.444 414.825,113.768 415.976,117.262 415.498 C 129.270 413.856,138.147 402.950,146.873 379.122 C 148.258 375.338,149.552 372.038,149.748 371.788 C 149.944 371.538,150.460 370.233,150.895 368.889 C 151.330 367.544,154.540 359.144,158.028 350.222 C 163.416 336.443,168.072 324.675,183.704 285.333 C 184.821 282.522,188.065 274.122,190.914 266.667 C 196.138 252.997,200.876 240.904,201.973 238.444 C 202.300 237.711,202.710 236.611,202.884 236.000 C 203.058 235.389,204.262 232.289,205.559 229.111 C 210.272 217.566,215.242 204.947,217.987 197.556 C 221.109 189.151,227.271 173.396,231.796 162.250 C 234.153 156.443,234.714 154.620,234.529 153.361 C 234.246 151.438,224.759 134.670,223.952 134.667 C 223.637 134.667,220.274 142.143,218.861 145.987 L 217.886 148.640 220.478 152.494 L 223.069 156.348 221.066 161.174 C 219.964 163.828,217.957 169.100,216.606 172.889 C 215.254 176.678,213.376 181.678,212.431 184.000 C 208.142 194.545,194.689 228.915,193.992 231.111 C 192.835 234.752,184.608 256.160,183.619 258.098 C 183.148 259.022,181.616 263.078,180.214 267.111 C 178.812 271.144,176.909 276.144,175.986 278.222 C 175.063 280.300,172.969 285.800,171.333 290.444 C 168.126 299.547,165.137 307.107,163.356 310.622 C 162.743 311.832,162.025 313.788,161.761 314.967 C 161.496 316.146,159.512 321.311,157.350 326.444 C 155.189 331.578,150.878 342.078,147.771 349.778 C 144.665 357.478,142.059 363.847,141.981 363.932 C 141.648 364.295,139.559 359.410,134.231 345.814 C 131.110 337.849,126.249 325.833,123.430 319.111 C 117.377 304.679,113.346 294.632,104.436 271.778 C 96.594 251.660,72.328 191.079,70.056 185.943 C 69.177 183.956,67.837 180.556,67.079 178.387 C 65.847 174.862,64.089 170.262,60.562 161.333 C 59.934 159.744,58.554 156.424,57.496 153.956 C 53.106 143.717,53.613 139.116,59.604 134.811 C 62.711 132.579,60.716 131.895,53.983 132.884 M342.667 133.333 C 342.667 133.577,343.347 135.127,344.179 136.777 C 346.845 142.069,346.639 144.717,342.925 152.889 C 341.869 155.211,340.652 158.211,340.219 159.556 C 339.786 160.900,338.882 163.100,338.211 164.444 C 334.999 170.876,311.085 228.298,305.329 243.401 C 304.383 245.882,302.477 250.382,301.094 253.401 C 299.710 256.419,298.018 260.289,297.334 262.000 C 296.649 263.711,294.251 269.411,292.004 274.667 C 289.757 279.922,284.359 293.022,280.007 303.778 C 275.656 314.533,270.849 326.233,269.326 329.778 C 264.054 342.046,256.803 359.338,256.461 360.460 C 256.203 361.305,256.533 362.554,257.782 365.451 C 259.161 368.651,259.342 369.401,258.840 369.818 C 258.354 370.221,258.055 369.912,257.339 368.272 C 256.847 367.145,256.027 365.272,255.517 364.111 C 255.007 362.950,253.028 357.800,251.119 352.667 C 246.372 339.901,238.792 320.360,227.328 291.333 C 222.018 277.889,216.216 263.106,214.435 258.482 L 211.196 250.075 211.005 262.704 L 210.813 275.333 214.345 284.222 C 216.288 289.111,223.570 307.911,230.527 326.000 C 237.484 344.089,243.747 360.189,244.443 361.778 C 245.139 363.367,247.041 368.367,248.669 372.889 C 255.877 392.907,264.786 408.024,272.004 412.482 C 278.660 416.592,289.626 417.146,290.367 413.409 C 290.497 412.756,290.852 411.397,291.156 410.389 C 292.201 406.928,289.569 404.001,285.941 404.590 C 284.448 404.832,284.444 404.829,284.388 402.972 C 284.292 399.843,284.159 399.251,283.202 397.702 C 281.413 394.808,279.058 393.333,275.177 392.678 C 273.378 392.374,273.333 392.324,273.333 390.606 C 273.333 386.613,267.413 381.352,262.889 381.325 C 260.898 381.313,257.333 379.875,257.333 379.085 C 257.333 378.767,257.629 378.697,258.111 378.901 C 264.814 381.742,263.939 382.864,273.024 359.778 C 279.734 342.724,286.779 325.637,291.393 315.220 C 293.747 309.905,298.023 299.556,300.895 292.222 C 303.767 284.889,307.259 276.289,308.654 273.111 C 310.050 269.933,312.157 264.933,313.336 262.000 C 314.515 259.067,316.919 253.367,318.677 249.333 C 320.435 245.300,324.526 235.600,327.768 227.778 C 337.667 203.887,342.642 192.024,345.100 186.444 C 359.408 153.966,360.852 147.617,355.107 142.444 C 354.564 141.956,353.933 141.056,353.704 140.444 C 352.667 137.678,350.376 134.546,348.795 133.735 C 347.050 132.839,342.667 132.552,342.667 133.333 M29.583 134.785 C 28.266 136.795,27.466 139.847,27.400 143.111 C 27.282 148.993,27.762 149.555,34.174 151.048 C 38.086 151.959,38.222 151.901,38.222 149.334 C 38.222 148.641,38.922 146.754,39.778 145.142 C 42.228 140.524,41.068 138.351,34.547 135.338 C 30.558 133.495,30.437 133.482,29.583 134.785 M368.279 135.394 C 367.577 135.774,365.922 136.457,364.600 136.912 C 362.208 137.735,358.521 140.357,358.058 141.566 C 357.924 141.915,358.389 143.455,359.092 144.989 C 359.795 146.523,360.619 149.278,360.924 151.111 C 361.229 152.944,361.526 154.508,361.585 154.586 C 361.643 154.664,362.594 154.038,363.698 153.195 C 364.803 152.352,367.172 151.103,368.964 150.420 C 373.529 148.679,373.455 148.788,373.491 143.698 C 373.523 139.074,373.227 138.066,371.196 135.889 C 369.878 134.476,369.951 134.488,368.279 135.394 M185.479 138.732 C 185.214 139.063,184.567 140.133,184.041 141.111 C 183.516 142.089,182.697 143.489,182.222 144.222 C 179.474 148.464,179.259 150.472,181.275 153.073 C 181.481 153.338,181.888 154.532,182.180 155.726 C 182.471 156.920,183.131 158.720,183.647 159.726 C 185.313 162.980,188.889 184.500,188.889 191.278 C 188.889 192.754,192.214 193.870,193.940 192.973 C 194.803 192.525,193.130 169.722,191.521 160.000 C 189.804 149.627,186.388 137.601,185.479 138.732 M21.153 150.238 C 13.431 151.565,8.168 157.695,6.421 167.400 C 4.588 177.582,6.726 183.485,15.839 193.394 C 23.292 201.498,26.701 206.003,30.418 212.661 C 31.069 213.826,32.263 215.646,33.072 216.706 C 37.437 222.422,42.275 235.932,43.381 245.488 C 44.377 254.097,45.328 254.071,48.944 245.333 C 50.916 240.569,50.350 226.653,48.025 222.709 C 46.703 220.467,46.691 220.386,46.948 215.665 C 47.418 207.055,45.349 201.233,40.020 196.169 L 36.689 193.004 36.665 187.724 C 36.626 179.410,34.175 175.221,27.096 171.368 L 24.810 170.124 23.384 171.506 C 19.842 174.940,15.868 170.963,16.604 164.722 C 17.475 157.348,26.424 156.706,32.600 163.576 C 35.068 166.321,35.021 166.219,42.867 185.556 C 46.636 194.844,54.047 213.044,59.337 226.000 C 71.583 255.996,83.627 285.970,95.320 315.556 C 100.393 328.389,105.744 341.689,107.213 345.111 C 109.595 350.664,120.852 377.968,123.181 383.843 L 124.088 386.130 125.502 383.399 C 126.289 381.879,127.513 380.276,128.263 379.784 L 129.611 378.901 127.418 374.006 C 126.212 371.314,122.232 361.811,118.574 352.889 C 114.915 343.967,109.859 331.667,107.337 325.556 C 104.815 319.444,100.246 308.244,97.184 300.667 C 94.122 293.089,89.974 282.889,87.967 278.000 C 85.959 273.111,82.868 265.411,81.098 260.889 C 79.327 256.367,76.478 249.360,74.767 245.318 C 73.056 241.276,70.628 235.176,69.371 231.763 C 68.114 228.349,66.112 223.456,64.921 220.889 C 63.731 218.322,62.235 214.684,61.597 212.805 C 60.960 210.925,59.317 206.825,57.946 203.694 C 56.576 200.562,51.783 188.773,47.296 177.495 C 42.809 166.217,38.922 156.516,38.658 155.937 C 37.323 153.006,26.171 149.376,21.153 150.238 M373.597 151.149 C 365.227 152.503,359.434 158.869,353.399 173.343 C 348.617 184.812,346.394 189.967,340.561 203.111 C 338.120 208.611,334.979 216.011,333.580 219.556 C 332.182 223.100,329.378 229.900,327.350 234.667 C 320.759 250.156,314.776 264.555,312.759 269.778 C 311.674 272.589,309.740 277.289,308.462 280.222 C 307.184 283.156,303.665 291.596,300.642 298.979 C 297.619 306.362,293.534 315.949,291.565 320.284 C 289.596 324.618,287.592 329.437,287.112 330.991 C 286.632 332.545,285.036 336.391,283.564 339.537 C 282.093 342.684,280.889 345.382,280.889 345.534 C 280.889 345.685,277.911 353.352,274.271 362.571 C 266.274 382.827,266.816 381.144,268.078 381.820 C 268.633 382.117,270.145 383.360,271.438 384.582 C 272.730 385.805,273.895 386.697,274.027 386.565 C 274.159 386.434,276.571 380.652,279.388 373.718 C 282.204 366.784,285.262 359.501,286.184 357.533 C 287.105 355.566,287.994 353.418,288.159 352.760 C 288.324 352.103,290.276 347.313,292.497 342.116 C 298.262 328.625,301.579 320.608,315.993 285.333 C 323.035 268.100,333.339 243.000,338.892 229.556 C 344.444 216.111,350.068 202.411,351.390 199.111 C 352.711 195.811,354.151 192.611,354.590 192.000 C 355.491 190.744,358.402 183.880,360.432 178.222 C 361.178 176.144,362.149 173.944,362.592 173.333 C 363.034 172.722,364.382 170.325,365.587 168.006 C 370.970 157.648,378.733 155.045,382.503 162.335 C 383.938 165.110,382.651 173.884,380.734 174.398 C 378.488 175.001,376.479 174.689,375.785 173.629 C 371.437 166.993,359.033 183.432,362.857 190.763 C 363.462 191.922,363.429 192.006,362.006 192.885 C 358.427 195.097,355.216 199.306,353.950 203.446 C 353.296 205.584,352.590 207.523,352.380 207.756 C 351.844 208.351,351.912 213.219,352.485 215.283 C 352.915 216.832,352.823 217.318,351.596 219.980 C 346.893 230.183,347.055 243.745,351.942 248.881 C 354.499 251.570,355.093 251.101,355.105 246.382 C 355.134 235.377,360.838 221.834,369.210 212.889 C 382.990 198.166,388.155 190.633,392.068 179.556 C 394.082 173.856,393.109 162.216,390.335 158.824 C 385.686 153.139,379.325 150.222,373.597 151.149 M185.667 194.985 C 184.510 195.160,184.444 195.297,184.444 197.528 L 184.444 199.885 188.005 200.196 C 189.963 200.367,194.383 200.363,197.826 200.189 L 204.087 199.871 204.932 197.899 C 206.399 194.477,206.892 194.659,196.333 194.733 C 191.139 194.770,186.339 194.883,185.667 194.985 M189.778 218.519 C 189.778 227.970,189.871 235.611,189.984 235.497 C 190.098 235.384,191.198 232.629,192.429 229.375 L 194.667 223.459 194.667 212.396 L 194.667 201.333 192.222 201.333 L 189.778 201.333 189.778 218.519 M196.000 210.667 C 196.000 220.859,196.164 221.472,197.699 217.000 C 198.266 215.350,199.715 211.364,200.920 208.143 C 203.676 200.775,203.788 201.333,199.556 201.333 L 196.000 201.333 196.000 210.667 M207.454 227.801 C 206.543 229.744,205.343 232.533,204.788 234.000 L 203.778 236.667 203.891 278.778 L 204.005 320.889 206.419 320.889 L 208.834 320.889 209.102 319.000 C 209.249 317.961,209.311 296.222,209.240 270.690 L 209.111 224.269 207.454 227.801 M200.419 245.222 C 198.030 251.323,196.899 254.492,196.415 256.444 C 196.203 257.300,196.015 272.200,195.996 289.556 L 195.963 321.111 199.315 321.241 L 202.667 321.371 202.667 280.908 C 202.667 258.653,202.582 240.444,202.478 240.444 C 202.374 240.444,201.448 242.594,200.419 245.222 M192.095 266.618 L 189.302 274.098 188.984 297.471 C 188.626 323.845,188.300 321.313,192.059 321.327 C 193.348 321.332,193.737 321.131,193.987 320.333 C 194.404 318.997,195.158 280.951,195.008 268.791 L 194.889 259.138 192.095 266.618 M185.556 323.067 C 184.038 323.395,183.560 327.139,184.919 328.054 C 185.634 328.535,213.960 328.410,214.447 327.924 C 214.611 327.759,214.576 326.559,214.369 325.257 L 213.992 322.889 200.440 322.834 C 192.987 322.804,186.289 322.909,185.556 323.067 M188.263 330.794 C 188.144 331.579,187.939 334.422,187.806 337.111 C 186.487 363.859,176.853 389.169,165.444 395.865 C 162.898 397.360,162.937 398.433,165.582 399.567 C 166.696 400.045,169.040 401.362,170.790 402.494 L 173.971 404.552 175.193 403.088 C 186.284 389.803,193.818 361.785,193.770 334.000 C 193.763 329.682,193.696 329.580,190.795 329.460 C 188.503 329.366,188.476 329.380,188.263 330.794 M195.323 329.714 C 195.206 329.831,195.111 340.543,195.110 353.519 C 195.108 387.649,194.356 394.869,189.054 411.612 L 187.483 416.573 188.507 417.953 C 192.058 422.744,194.782 427.124,197.165 431.876 L 199.889 437.307 200.670 435.209 C 202.193 431.118,205.558 425.098,209.032 420.248 C 210.969 417.545,212.644 415.100,212.754 414.816 C 212.865 414.531,211.660 410.331,210.077 405.482 C 205.120 390.300,204.909 388.593,203.782 354.667 C 203.404 343.300,202.983 332.941,202.847 331.647 L 202.598 329.293 199.066 329.398 C 197.124 329.456,195.439 329.598,195.323 329.714 M204.444 336.844 C 204.444 341.129,204.743 346.669,205.135 349.644 C 205.515 352.529,206.087 356.989,206.406 359.556 C 206.770 362.483,207.682 366.359,208.853 369.953 C 209.880 373.105,210.782 376.363,210.856 377.194 C 210.995 378.737,211.208 379.276,213.789 384.612 C 216.165 389.526,221.908 397.796,224.423 399.927 L 226.698 401.854 231.349 398.889 C 236.919 395.338,236.854 396.272,231.889 391.123 C 226.226 385.251,220.894 378.221,218.566 373.556 C 214.869 366.147,210.449 346.663,209.846 335.114 L 209.556 329.556 207.000 329.422 L 204.444 329.289 204.444 336.844 " stroke="none" fill="#000000" fill-rule="evenodd"></path></g></svg>